<?xml version="1.0" encoding="UTF-8"?>
<svg id="Layer_1" data-name="Layer 1" xmlns="http://www.w3.org/2000/svg" viewBox="0 0 600 600">
  <defs>
    <style>
      .cls-1 {
        fill: #fff;
      }
    </style>
  </defs>
  <path class="cls-1" d="M549.5,305.42h0c0,20.71-16.79,37.5-37.5,37.5h-153.02c-12.14,0-21.98,9.84-21.98,21.98v153.02c0,20.71-16.79,37.5-37.5,37.5h0c-20.71,0-37.5-16.79-37.5-37.5v-153.02c0-12.14-9.84-21.98-21.98-21.98H87c-20.71,0-37.5-16.79-37.5-37.5h0c0-20.71,16.79-37.5,37.5-37.5H240.02c12.14,0,21.98-9.84,21.98-21.98V92.92c0-20.71,16.79-37.5,37.5-37.5h0c20.71,0,37.5,16.79,37.5,37.5V245.94c0,12.14,9.84,21.98,21.98,21.98h153.02c20.71,0,37.5,16.79,37.5,37.5Z"/>
</svg>