<?xml version="1.0" encoding="UTF-8"?>
<svg id="Layer_2" data-name="Layer 2" xmlns="http://www.w3.org/2000/svg" viewBox="0 0 600 600">
  <defs>
    <style>
      .cls-1 {
        fill: #fff;
      }

      .cls-2 {
        fill: #594a42;
      }

      .cls-3 {
        fill: #6dc497;
      }
    </style>
  </defs>
  <path class="cls-3" d="M259.36,255.68c-.01,.2-.03,.4-.05,.6,0,.01,0,.02,0,.03-.14,1.43-1.72,2.23-2.97,1.53L120.32,182.36c-1.3-.72-2.49,1.09-1.29,1.97l128.31,93.04c1.13,.82,1.1,2.53-.07,3.3-4.33,2.87-9.59,4.36-15.08,3.97C27.51,270.3,20.31,90.95,20.31,90.95c176.16,0,224.09,97.11,236.7,140.42,2.31,7.92,3.1,16.17,2.35,24.31Z"/>
  <path class="cls-3" d="M441.68,214.13c-90.76,72.82-146.95,60.13-163.73,53.52-1.13-.45-1.38-1.93-.46-2.73L441.42,122.98c1.58-1.36-.36-3.77-2.03-2.52l-171.74,128.82c-1.06,.8-2.58,.04-2.58-1.29v-.39c0-1.01,.07-2.04,.2-3.06,1.23-9.64,3.28-19.13,6.15-28.37,2.87-9.25,6.55-18.23,11.04-26.84C351.47,56.98,510.87,32.66,528,30.41c.86-.11,1.64,.47,1.79,1.32,2.23,12.51,13.67,100.76-88.11,182.4Z"/>
  <path class="cls-2" d="M329.96,511.42l-11.2,21.27c-2.07,3.93-7.4,4.68-10.45,1.45-21.33-22.59-86.78-106.64-51.19-257.38,.95-4.04,6.13-5.24,8.75-2.02h0c.9,1.11,1.28,2.56,1.05,3.97-24.74,149.86,42.53,210.74,61.13,224.44,2.59,1.91,3.41,5.41,1.91,8.26Z"/>
  <path class="cls-1" d="M259.36,255.68c-.01,.2-.03,.4-.05,.6-.05-.2-.03-.41,.05-.6Z"/>
</svg>