<?xml version="1.0" encoding="UTF-8"?>
<svg id="Layer_1" data-name="Layer 1" xmlns="http://www.w3.org/2000/svg" viewBox="0 0 728.96 1055.1">
  <defs>
    <style>
      .cls-1 {
        fill: #fff;
      }

      .cls-2 {
        fill: #cced9f;
      }
    </style>
  </defs>
  <path class="cls-1" d="M89.02,897.16c57.97,36.05,118.99,67.41,186.96,78.67,.75,.12,1.5,.25,2.26,.37,6.07,.98,12.17,1.84,18.27,2.59-.32-1.68,7.42,3.74,7,2.62-20.63-54.98-8.91-123.45,29.86-168.49,13.62-15.83,28.16-31.08,43.74-44.97,82.93-73.97,134.64-178.33,153.59-287.03,9.4-53.94,10.92-109.33,4.1-163.68-6.24-49.68-16.05-82-32.28-131.65,1.35,5.97,6.48,12.28,9.3,17.48,7.34,13.54,17.36,26.2,26.11,38.93,18.12,26.4,36.44,52.67,54.96,78.79,7.17,10.12,14.41,20.11,20.72,30.81,13.99,23.72,29.23,46.56,42.45,70.76,25.74,47.09,47.38,96.76,60.25,148.98,12.98,52.69,16.39,107.49,8.31,161.23-2.55,16.97-6.19,33.78-10.82,50.3-13.58,48.51-35.79,94.7-66.44,134.75-97.25,127.09-289.73,177.23-434.19,102.59-43.17-22.31-80.2-55.82-110.12-93.86-10.28-13.07-15.64-18.66-21.23-34.49,.31,.88,2.17,2.06,2.93,2.56,1.4,.93,2.83,1.84,4.27,2.73Z"/>
  <path class="cls-2" d="M360.27,.46c1.1,.69,1.94,2.03,2.54,3.25,57.68,116.36,110.78,256.26,99.87,387.96-4.33,52.29-16.91,102.73-35.72,151.76-14.52,37.86-33.76,72.97-58.22,105.17-7.35,9.68-15.94,18.51-24.54,27.16-33.29,33.51-69.43,64.37-95.76,104.29-11.36,17.23-13.67,35.86-18.18,55.95-.7,3.12,.32,6.21-.94,11.29-2.47-3.7-4.26-5.86-5.51-8.3-22.7-44.29-35.49-91.4-41.66-140.69-10.57-84.46,14.15-172.13,49.33-248.31,20.11-43.54,44.64-84.89,71.32-124.69,12.07-18,24.43-35.92,34.17-55.33,8.39-16.74,20.72-43.24,16.8-62.57-2.54-12.52-20.79-9.82-25.66-.33-41.33,80.53-110.79,143.24-157.16,220.98-76.38,128.02-79.26,280.94-22.45,416.84,1.92,4.59,4.05,9.1,6.08,13.64-.81,.85,.99,.91,.18,1.77-6.67-2.58-13.52-4.78-19.99-7.8-67.41-31.51-109.47-84.01-127.46-155.8-11.87-47.37-7.54-94.87,.33-142.36,12.82-77.38,48.76-143.76,98.6-202.74,47.69-56.44,96.84-111.69,146.54-166.38,33.99-37.39,60.94-82.37,80.98-128.61,4.49-10.37,8.85-20.79,13.08-31.27,2.11-5.24,4.19-10.49,6.24-15.76,1-2.58,1.74-9.12,5.34-9.57,.68-.08,1.29,.1,1.84,.44Z"/>
</svg>