<?xml version="1.0" encoding="UTF-8"?>
<svg id="Layer_1" data-name="Layer 1" xmlns="http://www.w3.org/2000/svg" viewBox="0 0 600 600">
  <defs>
    <style>
      .cls-1 {
        fill: #aaa;
      }
    </style>
  </defs>
  <path class="cls-1" d="M443.51,98.44h-35.72v-.52c0-13.06-10.67-23.69-23.8-23.69h-41.73c-8.86-14.84-25.03-24.23-42.26-24.23s-33.39,9.39-42.25,24.23h-41.72c-13.13,0-23.82,10.63-23.82,23.69v.52h-35.7c-18.98,0-34.43,14.4-34.43,32.09v387.39c0,17.69,15.45,32.08,34.43,32.08H443.51c18.97,0,34.41-14.39,34.41-32.08V130.53c0-17.69-15.44-32.09-34.41-32.09Zm-44.16,178.83H200.65c-7.87,0-14.29-6.4-14.29-14.28s6.42-14.29,14.29-14.29h198.7c7.88,0,14.29,6.4,14.29,14.29s-6.41,14.28-14.29,14.28Zm14.29,44.16c0,7.88-6.41,14.28-14.29,14.28H200.65c-7.87,0-14.29-6.4-14.29-14.28s6.42-14.29,14.29-14.29h198.7c7.88,0,14.29,6.41,14.29,14.29Zm-212.99,44.15h198.7c7.88,0,14.29,6.41,14.29,14.29s-6.41,14.29-14.29,14.29H200.65c-7.87,0-14.29-6.41-14.29-14.29s6.42-14.29,14.29-14.29Zm212.99,72.73c0,7.88-6.41,14.29-14.29,14.29h-108.6c-7.88,0-14.28-6.41-14.28-14.29s6.4-14.28,14.28-14.28h108.6c7.88,0,14.29,6.4,14.29,14.28Zm-14.29-219.48H200.65c-7.87,0-14.29-6.4-14.29-14.28s6.42-14.29,14.29-14.29h198.7c7.88,0,14.29,6.4,14.29,14.29s-6.41,14.28-14.29,14.28ZM220.78,101.86h56.51l3.22-9.48c3-8.82,10.84-14.74,19.49-14.74s16.51,5.92,19.51,14.72l3.22,9.5h56.49v17.79H220.78v-17.79Z"/>
</svg>