<?xml version="1.0" encoding="UTF-8"?>
<svg id="Layer_1" data-name="Layer 1" xmlns="http://www.w3.org/2000/svg" viewBox="0 0 692.4 2436">
  <path d="M200.82,1226.67c-2.27,2.27-5.4,3.67-8.86,3.67h-42.24c-4.56,0-8.25,3.7-8.25,8.25v42.24c0,6.92-5.61,12.53-12.54,12.53-3.46,0-6.6-1.4-8.87-3.67-2.27-2.27-3.67-5.4-3.67-8.86v-42.24c0-4.55-3.69-8.25-8.25-8.25h-41.86c-6.89,0-12.9-5.63-12.91-12.52-.01-3.47,1.39-6.61,3.67-8.89,2.27-2.26,5.4-3.66,8.86-3.66h42.24c4.56,0,8.25-3.69,8.25-8.25v-41.87c0-6.89,5.63-12.9,12.52-12.91,3.47-.01,6.62,1.4,8.89,3.67,2.26,2.27,3.67,5.41,3.67,8.86v42.25c0,4.56,3.69,8.25,8.25,8.25h41.87c6.88,0,12.89,5.63,12.9,12.51,.01,3.47-1.4,6.62-3.67,8.89Z"/>
  <path d="M257.6,1226.01c-.33,5.23-4.71,9.33-9.98,9.33-2.75,0-5.42-1.15-7.3-3.16-1.88-2-2.85-4.71-2.68-7.43,.15-2.29,.22-4.63,.22-6.95,0-29.85-11.88-57.72-33.46-78.48-21.56-20.74-49.87-31.53-79.78-30.37-56.43,2.19-102.35,48.11-104.54,104.54-1.15,29.88,9.63,58.22,30.37,79.78,20.76,21.58,48.63,33.46,78.48,33.46,2.33,0,4.66-.07,6.95-.22,2.73-.17,5.43,.8,7.43,2.68,2.01,1.88,3.16,4.55,3.16,7.3,0,5.27-4.1,9.65-9.33,9.98-2.71,.17-5.47,.26-8.21,.26-35.33,0-68.32-14.07-92.89-39.61C11.49,1281.61-1.27,1248.07,.1,1212.71c2.59-66.8,56.94-121.15,123.74-123.74,1.72-.07,3.44-.1,5.15-.1,33.47,0,64.99,12.68,89.27,36.04,25.53,24.57,39.6,57.56,39.6,92.89,0,2.75-.09,5.51-.26,8.21Z"/>
  <path d="M204.49,1217.78c.01,3.47-1.4,6.62-3.67,8.89-2.27,2.27-5.4,3.67-8.86,3.67h-42.24c-4.56,0-8.25,3.7-8.25,8.25v42.24c0,6.92-5.61,12.53-12.54,12.53-3.46,0-6.6-1.4-8.87-3.67-2.27-2.27-3.67-5.4-3.67-8.86v-42.24c0-4.55-3.69-8.25-8.25-8.25h-41.86c-6.89,0-12.9-5.63-12.91-12.52-.01-3.47,1.39-6.61,3.67-8.89,2.27-2.26,5.4-3.66,8.86-3.66h42.24c4.56,0,8.25-3.69,8.25-8.25v-41.87c0-6.89,5.63-12.9,12.52-12.91,3.47-.01,6.62,1.4,8.89,3.67,2.26,2.27,3.67,5.41,3.67,8.86v42.25c0,4.56,3.69,8.25,8.25,8.25h41.87c6.88,0,12.89,5.63,12.9,12.51Z"/>
  <path d="M257.86,1217.8c0,2.75-.09,5.51-.26,8.21-.33,5.23-4.71,9.33-9.98,9.33-2.75,0-5.42-1.15-7.3-3.16-1.88-2-2.85-4.71-2.68-7.43,.15-2.29,.22-4.63,.22-6.95,0-29.85-11.88-57.72-33.46-78.48-21.56-20.74-49.87-31.53-79.78-30.37-56.43,2.19-102.35,48.11-104.54,104.54-1.15,29.88,9.63,58.22,30.37,79.78,20.76,21.58,48.63,33.46,78.48,33.46,2.33,0,4.66-.07,6.95-.22,2.73-.17,5.43,.8,7.43,2.68,2.01,1.88,3.16,4.55,3.16,7.3,0,5.27-4.1,9.65-9.33,9.98-2.71,.17-5.47,.26-8.21,.26-35.33,0-68.32-14.07-92.89-39.61C11.49,1281.61-1.27,1248.07,.1,1212.71c2.59-66.8,56.94-121.15,123.74-123.74,1.72-.07,3.44-.1,5.15-.1,33.47,0,64.99,12.68,89.27,36.04,25.53,24.57,39.6,57.56,39.6,92.89Z"/>
</svg>