<?xml version="1.0" encoding="UTF-8"?>
<svg id="Layer_2" data-name="Layer 2" xmlns="http://www.w3.org/2000/svg" viewBox="0 0 139.62 123.2">
  <defs>
    <style>
      .cls-1 {
        fill: #666;
      }
    </style>
  </defs>
  <g id="Layer_1-2" data-name="Layer 1">
    <path class="cls-1" d="M10.27,123.2c-2.74,0-5.13-1.03-7.19-3.08C1.03,118.06,0,115.67,0,112.93V10.27C0,7.53,1.03,5.13,3.08,3.08,5.13,1.03,7.53,0,10.27,0h119.09c2.74,0,5.13,1.03,7.19,3.08,2.05,2.05,3.08,4.45,3.08,7.19V112.93c0,2.74-1.03,5.13-3.08,7.19s-4.45,3.08-7.19,3.08H10.27Zm6.84-10.27H122.52c3.78,0,6.84-3.06,6.84-6.84V17.1c0-3.78-3.06-6.84-6.84-6.84H17.1c-3.78,0-6.84,3.06-6.84,6.84V106.09c0,3.78,3.06,6.84,6.84,6.84Zm11.64-17.11h20.55c3.78,0,6.84-3.06,6.84-6.84v-.02c0-3.78-3.06-6.84-6.84-6.84H28.74c-3.78,0-6.84,3.06-6.84,6.84v.02c0,3.78,3.06,6.84,6.84,6.84Zm63.36-18.52l24.21-24.21c2.67-2.67,2.67-7,0-9.67l-.07-.07c-2.68-2.68-7.02-2.67-9.68,.02l-14.46,14.56c-2.67,2.69-7.01,2.69-9.68,.02l-.03-.03c-2.69-2.69-7.05-2.67-9.71,.04h0c-2.63,2.68-2.61,6.97,.04,9.62l9.71,9.71c2.67,2.67,7,2.67,9.67,0Zm-63.36-8.85h20.55c3.78,0,6.84-3.06,6.84-6.84v-.02c0-3.78-3.06-6.84-6.84-6.84H28.74c-3.78,0-6.84,3.06-6.84,6.84v.02c0,3.78,3.06,6.84,6.84,6.84Zm0-27.38h20.55c3.78,0,6.84-3.06,6.84-6.84v-.02c0-3.78-3.06-6.84-6.84-6.84H28.74c-3.78,0-6.84,3.06-6.84,6.84v.02c0,3.78,3.06,6.84,6.84,6.84Z"/>
  </g>
</svg>