<?xml version="1.0" encoding="UTF-8"?>
<svg id="Layer_1" data-name="Layer 1" xmlns="http://www.w3.org/2000/svg" viewBox="0 0 600 600">
  <defs>
    <style>
      .cls-1 {
        fill: #ffa26f;
      }
    </style>
  </defs>
  <path class="cls-1" d="M443.51,98.44h-35.71v-.52c0-13.06-10.68-23.69-23.81-23.69h-41.73c-8.86-14.84-25.03-24.23-42.26-24.23s-33.39,9.39-42.25,24.23h-41.73c-13.13,0-23.82,10.62-23.82,23.69v.52h-35.7c-18.97,0-34.43,14.4-34.43,32.09v387.39c0,17.69,15.45,32.08,34.43,32.08H443.51c18.97,0,34.42-14.39,34.42-32.08V130.53c0-17.69-15.44-32.09-34.42-32.09Zm-222.73,3.42h56.51l3.22-9.48c3-8.82,10.84-14.74,19.49-14.74s16.51,5.92,19.51,14.73l3.22,9.49h56.49v17.79H220.78v-17.79Zm228.57,416.06c0,2.42-2.68,4.44-5.84,4.44H156.51c-3.17,0-5.86-2.03-5.86-4.44V130.53c0-2.42,2.69-4.45,5.86-4.45h35.74c.7,11.81,11.1,21.21,23.78,21.21h167.96c12.68,0,23.08-9.4,23.78-21.21h35.74c3.17,0,5.84,2.04,5.84,4.45v387.39Z"/>
  <path class="cls-1" d="M413.64,204.55c0,7.88-6.4,14.29-14.29,14.29H200.65c-7.87,0-14.29-6.4-14.29-14.29s6.42-14.29,14.29-14.29h198.7c7.88,0,14.29,6.4,14.29,14.29Z"/>
  <path class="cls-1" d="M413.64,262.99c0,7.88-6.4,14.29-14.29,14.29H200.65c-7.87,0-14.29-6.4-14.29-14.29s6.42-14.29,14.29-14.29h198.7c7.88,0,14.29,6.4,14.29,14.29Z"/>
  <path class="cls-1" d="M413.64,321.43c0,7.88-6.4,14.29-14.29,14.29H200.65c-7.87,0-14.29-6.4-14.29-14.29s6.42-14.29,14.29-14.29h198.7c7.88,0,14.29,6.4,14.29,14.29Z"/>
  <path class="cls-1" d="M413.64,379.87c0,7.88-6.4,14.29-14.29,14.29H200.65c-7.87,0-14.29-6.4-14.29-14.29s6.42-14.29,14.29-14.29h198.7c7.88,0,14.29,6.4,14.29,14.29Z"/>
  <path class="cls-1" d="M413.64,438.31c0,7.88-6.4,14.29-14.29,14.29h-108.6c-7.88,0-14.29-6.4-14.29-14.29s6.4-14.29,14.29-14.29h108.6c7.88,0,14.29,6.4,14.29,14.29Z"/>
</svg>