<?xml version="1.0" encoding="UTF-8"?>
<svg id="Layer_1" data-name="Layer 1" xmlns="http://www.w3.org/2000/svg" viewBox="0 0 600 600">
  <defs>
    <style>
      .cls-1 {
        fill: #555;
      }
    </style>
  </defs>
  <path class="cls-1" d="M499.66,315.49c-2.93,0-5.77,.91-8.22,2.62-3.84,2.69-6.14,7.1-6.14,11.8v138.41c0,9.54-7.76,17.31-17.3,17.31H131.73c-9.54,0-17.3-7.77-17.3-17.31V132.06c0-9.54,7.76-17.3,17.3-17.3h181.59c2.98,0,5.83-.9,8.26-2.6,5.26-3.68,7.4-10.01,5.47-16.13-1.92-6.11-7.32-10.06-13.73-10.06H131.73c-25.42,0-46.1,20.67-46.1,46.1V468.33c0,25.42,20.68,46.1,46.1,46.1H467.99c25.42,0,46.1-20.68,46.1-46.1v-138.41c0-7.95-6.48-14.42-14.44-14.42Zm-1.44,4.56c-.72,.12-1.44,.3-2.15,.59,.7-.29,1.43-.48,2.15-.59Z"/>
  <path class="cls-1" d="M548.62,126.24c-82.18,72.45-192.84,227.92-305.22,248.1,18.33-100.26,184.16-232.6,249.5-303.81,19.75-25.44,81.02,35.68,55.72,55.72Z"/>
</svg>