<?xml version="1.0" encoding="UTF-8"?>
<svg id="Layer_2" data-name="Layer 2" xmlns="http://www.w3.org/2000/svg" viewBox="0 0 142.09 142.09">
  <defs>
    <style>
      .cls-1 {
        fill: #666;
      }
    </style>
  </defs>
  <g id="Layer_1-2" data-name="Layer 1">
    <path class="cls-1" d="M17.66,130.46h0c1.6,0,3.13-.64,4.26-1.77L101.77,48.85c2.36-2.36,2.36-6.17,0-8.53h0c-2.36-2.36-6.17-2.36-8.53,0L13.4,120.17c-1.13,1.13-1.77,2.67-1.77,4.26h0c0,3.33,2.7,6.03,6.03,6.03ZM126.39,31.99l-16.28-16.28c-2.36-2.36-2.36-6.17,0-8.53l3.88-3.88C116.18,1.1,118.9,0,122.13,0c3.23,0,5.94,1.1,8.14,3.3l8.53,8.53c2.2,2.2,3.3,4.91,3.3,8.14s-1.1,5.94-3.3,8.14l-3.88,3.88c-2.36,2.36-6.17,2.36-8.53,0Zm-8.14,16.67L26.58,140.33c-1.13,1.13-2.67,1.77-4.26,1.77H6.03c-3.33,0-6.03-2.7-6.03-6.03v-16.28c0-1.6,.64-3.13,1.77-4.26L93.44,23.84c2.36-2.36,6.17-2.36,8.53,0l16.28,16.28c2.36,2.36,2.36,6.17,0,8.53Z"/>
  </g>
</svg>