<?xml version="1.0" encoding="UTF-8"?>
<svg id="Layer_2" data-name="Layer 2" xmlns="http://www.w3.org/2000/svg" viewBox="0 0 134.12 137.84">
  <defs>
    <style>
      .cls-1 {
        fill: #666;
      }
    </style>
  </defs>
  <g id="Layer_1-2" data-name="Layer 1">
    <g>
      <path class="cls-1" d="M117.79,72.54c.07-1.27,.1-2.48,.1-3.62s-.03-2.38-.1-3.69c-.03-1.34-.17-2.58-.41-3.72l14.21-10.13c2.5-1.78,3.25-5.16,1.73-7.83l-10.65-18.78c-1.53-2.7-4.88-3.79-7.7-2.49l-11.97,5.48c-1.99,.91-4.28,.61-6.07-.65-1.1-.77-2.3-1.5-3.61-2.19-1.4-.77-2.76-1.45-4.08-2.03-1.83-.82-3.09-2.5-3.41-4.48l-1.91-12.05c-.67-4.21-3.18-6.35-6.12-6.35h-21.47c-2.95,0-5.46,2.15-5.92,5.06l-2.11,13.41c-.31,2-1.6,3.7-3.45,4.51-1.29,.56-2.62,1.23-3.98,2-1.34,.76-2.59,1.55-3.75,2.35-1.72,1.19-3.93,1.36-5.83,.49l-12.13-5.55c-2.83-1.29-6.17-.21-7.7,2.49L.78,43.6C-.72,46.25,0,49.6,2.45,51.39l14.3,10.46c-.24,1.03-.38,2.21-.45,3.55-.03,1.31-.07,2.48-.07,3.51s.03,2.21,.07,3.51c.07,1.34,.21,2.52,.45,3.55l-14.3,10.46C0,88.24-.72,91.59,.78,94.24l10.68,18.84c1.53,2.7,4.88,3.79,7.7,2.49l12.13-5.55c1.9-.87,4.11-.7,5.83,.49,1.16,.8,2.42,1.59,3.75,2.35,1.4,.8,2.76,1.5,4.08,2.11,1.79,.82,3.03,2.5,3.34,4.45l1.92,12.08c.67,4.21,3.18,6.35,6.12,6.35h21.47c2.95,0,5.46-2.14,5.92-5.05l2.1-13.22c.31-1.98,1.58-3.69,3.43-4.49,1.35-.58,2.71-1.29,4.08-2.12,1.29-.79,2.5-1.58,3.63-2.39,1.73-1.23,3.98-1.43,5.91-.54l12.1,5.54c2.83,1.29,6.17,.21,7.7-2.49l10.67-18.81c1.51-2.66,.77-6.02-1.7-7.81l-14.26-10.3c.24-1.14,.38-2.34,.41-3.62Zm1.85,24.43l-1.69,3.04c-1.5,2.69-4.79,3.81-7.62,2.59l-9.73-4.22c-2.06-.89-4.46-.58-6.17,.87-2.05,1.74-4.25,3.29-6.62,4.65-2.34,1.36-4.77,2.45-7.3,3.31-2.14,.72-3.65,2.64-3.93,4.88l-1.27,10.17c-.37,3-2.92,5.25-5.94,5.25h-4.58c-3.02,0-5.57-2.25-5.94-5.25l-1.27-10.17c-.28-2.24-1.79-4.16-3.93-4.88-2.53-.85-4.97-1.95-7.3-3.31-2.37-1.36-4.57-2.91-6.62-4.65-1.71-1.45-4.11-1.77-6.17-.87l-9.73,4.22c-2.83,1.23-6.13,.11-7.62-2.59l-1.69-3.04c-1.47-2.64-.74-5.95,1.69-7.74l8.85-6.5c1.83-1.34,2.76-3.6,2.35-5.83-.14-.74-.26-1.48-.36-2.23-.31-1.9-.45-3.79-.45-5.75s.14-3.86,.45-5.75c.11-.73,.23-1.47,.37-2.22,.41-2.23-.52-4.5-2.35-5.84l-8.85-6.5c-2.43-1.79-3.16-5.1-1.69-7.74l1.69-3.04c1.5-2.69,4.79-3.81,7.62-2.59l9.61,4.17c2.11,.92,4.57,.56,6.29-.98,1.97-1.76,4.11-3.32,6.45-4.66,2.33-1.35,4.78-2.43,7.36-3.23,2.21-.68,3.78-2.63,4.06-4.92l1.25-10.04c.37-3,2.92-5.25,5.94-5.25h4.58c3.02,0,5.57,2.25,5.94,5.25l1.21,9.71c.31,2.5,2.14,4.5,4.56,5.19,2.48,.7,4.81,1.71,7.01,3.04,2.28,1.36,4.39,2.95,6.33,4.78,1.72,1.6,4.23,2,6.39,1.07l9.52-4.13c2.83-1.23,6.13-.11,7.62,2.59l1.69,3.04c1.47,2.64,.74,5.95-1.69,7.74l-8.74,6.41c-1.89,1.39-2.74,3.74-2.32,6.05,.13,.69,.23,1.37,.32,2.06,.24,1.9,.34,3.82,.34,5.79s-.14,3.86-.45,5.75c-.11,.73-.23,1.47-.37,2.22-.41,2.23,.52,4.5,2.35,5.84l8.85,6.5c2.43,1.79,3.16,5.1,1.69,7.74Z"/>
      <path class="cls-1" d="M82.92,53.07c-4.38-4.38-9.65-6.55-15.85-6.55s-11.47,2.17-15.85,6.55c-4.38,4.38-6.55,9.65-6.55,15.85s2.17,11.47,6.55,15.85c4.38,4.38,9.65,6.55,15.85,6.55s11.47-2.17,15.85-6.55c4.38-4.38,6.55-9.65,6.55-15.85s-2.17-11.47-6.55-15.85Zm-7.31,24.4c-2.38,2.34-5.2,3.51-8.55,3.51s-6.17-1.17-8.55-3.51c-2.34-2.38-3.51-5.2-3.51-8.55s1.17-6.17,3.51-8.55c2.38-2.34,5.2-3.51,8.55-3.51s6.17,1.17,8.55,3.51c2.34,2.38,3.51,5.2,3.51,8.55s-1.17,6.17-3.51,8.55Z"/>
    </g>
  </g>
</svg>