<?xml version="1.0" encoding="UTF-8"?>
<svg id="Layer_2" data-name="Layer 2" xmlns="http://www.w3.org/2000/svg" viewBox="0 0 600 600">
  <defs>
    <style>
      .cls-1 {
        fill: #fff;
      }

      .cls-2 {
        fill: #594a42;
      }

      .cls-3 {
        fill: #6dc497;
      }
    </style>
  </defs>
  <path class="cls-3" d="M281.48,268.92c-.01,.23-.03,.45-.06,.68,0,.01,0,.02,0,.03-.16,1.61-1.93,2.51-3.34,1.73L124.89,186.34c-1.46-.81-2.8,1.23-1.45,2.22l144.51,104.78c1.28,.93,1.24,2.85-.08,3.72-4.88,3.23-10.8,4.91-16.98,4.48C20.37,285.38,12.26,83.4,12.26,83.4c198.39,0,252.37,109.37,266.57,158.14,2.6,8.92,3.49,18.21,2.65,27.38Z"/>
  <path class="cls-3" d="M486.81,222.12c-102.21,82.01-165.5,67.72-184.4,60.27-1.28-.5-1.56-2.18-.52-3.07L486.51,119.47c1.77-1.54-.41-4.24-2.29-2.84l-193.42,145.07c-1.2,.9-2.91,.04-2.91-1.45v-.44c0-1.14,.08-2.3,.22-3.45,1.39-10.86,3.69-21.54,6.93-31.95,3.23-10.42,7.38-20.53,12.43-30.23C385.21,45.14,564.73,17.75,584.02,15.21c.96-.13,1.85,.53,2.02,1.49,2.51,14.09,15.39,113.47-99.24,205.42Z"/>
  <path class="cls-2" d="M360.99,556.93l-12.61,23.96c-2.33,4.43-8.33,5.27-11.77,1.63-24.02-25.45-97.73-120.1-57.65-289.86,1.08-4.55,6.91-5.9,9.86-2.27h0c1.02,1.25,1.44,2.88,1.18,4.47-27.86,168.77,47.9,237.34,68.84,252.76,2.92,2.15,3.84,6.1,2.15,9.3Z"/>
  <path class="cls-1" d="M281.48,268.92c-.01,.23-.03,.45-.06,.68-.06-.23-.03-.46,.06-.68Z"/>
</svg>