<?xml version="1.0" encoding="UTF-8"?>
<svg id="Layer_2" data-name="Layer 2" xmlns="http://www.w3.org/2000/svg" viewBox="0 0 1128.26 2436">
  <defs>
    <style>
      .cls-1 {
        fill: #6c9;
      }
    </style>
  </defs>
  <g id="Layer_1-2" data-name="Layer 1">
    <path class="cls-1" d="M0,2304.74v131.26H1125V829.1c-.1,.01-.2,.01-.3,.01-1.7,0-2.38-1.9-1.36-3.79,.46-1.02,1.05-1.88,1.66-2.52,.74-.79,1.51-1.25,2.07-1.25,.47,0,.95,.73,1.19,1.95V339.61c-.23,1.22-.71,2.15-1.19,2.15-.56,0-1.32-.57-2.07-1.4-.6-.67-1.2-1.52-1.66-2.37-1.02-2.27-.34-3.79,1.36-3.79,.1,0,.2,0,.3,0V0H576.23c.66,3.76,1.71,6.98,3.11,8.55,3.06,3.41,3.06,4.53,.34,4.53-2.37,0-5.09,3.41-6.11,7.56-1.35,4.16-3.73,6.8-5.43,5.67-5.09-3.77-3.39,12.09,2.04,17,2.72,2.65,5.09,9.45,5.09,15.49,0,5.67,1.7,11.72,4.07,13.22,3.4,2.27-4.07,7.56-13.57,9.45-1.36,0-4.07,1.89-6.11,3.77-4.41,3.79-13.24-4.91-9.16-9.06,1.02-1.51,.34-2.65-1.7-2.65-2.38,0-4.07-3.39-4.07-7.92,0-4.92-1.7-7.18-4.07-5.67-2.38,1.12-6.79,3.4-9.85,4.53-4.41,1.5-5.43,5.29-4.07,17,1.36,11.33,.68,15.11-3.73,17-6.11,2.65-7.47,15.1-1.7,17.38,6.45,2.27,16.63,44.95,12.9,52.51-5.09,10.95-3.74,18.51,4.07,18.51,5.09,0,6.45,1.51,5.09,6.04-1.02,3.4-2.04,7.56-2.04,9.82s-2.03,1.89-5.09-.74c-4.41-4.17-6.1-3.79-10.18,2.26-2.71,3.77-5.77,12.84-7.12,20.02-2.04,10.96-1.02,14.35,5.43,20.02,4.41,4.16,8.48,10.21,8.82,13.6,.34,3.4,1.7,9.44,3.05,12.85,1.36,4.15,1.02,6.8-1.35,6.8-2.04,0-3.74,2.64-3.74,6.05,0,3.01-1.35,4.53-3.39,3.39-6.11-4.15-3.73,6.42,2.71,11.71,8.49,7.18,10.86,6.42,10.86-4.15,0-6.42,1.7-9.45,6.11-9.07,3.4,0,4.08,1.13,1.7,2.27-2.38,.75-4.41,7.56-4.41,14.74,0,12.07,.34,12.45,10.52,10.19,10.18-2.27,10.52-1.89,6.79,6.05-2.38,4.53-3.4,16.24-2.72,25.68l1.36,17.76-6.11-8.69c-8.15-11.33-10.18-4.91-10.52,30.61,0,12.84-.68,13.97-6.45,10.19-3.39-1.89-6.45-5.29-6.45-7.56s-2.37-2.26-6.78,.38c-4.75,3.03-6.79,3.03-6.79,0,0-2.64-2.04-1.88-5.09,1.52-2.72,3.01-5.09,7.55-5.09,9.81s-1.7,3.03-3.73,1.9c-2.04-1.52-4.42,.75-5.43,5.28-1.02,4.16-4.42,8.7-7.81,9.82-3.39,1.14-6.79,5.67-7.81,10.21-1.69,6.8-2.71,7.18-7.12,3.02-3.06-2.64-5.43-7.56-5.43-11.33,0-9.07-3.73-12.09-9.16-7.18-2.38,2.27-4.42,3.02-4.42,1.13s-1.69-.76-3.39,2.27c-2.71,4.53-3.39,3.4-3.39-4.53,0-18.89-25.12-13.98-28.51,6.05-1.7,8.3-3.05,9.81-6.45,6.79-4.07-4.16-21.04-3.78-24.77,.38-1.02,1.13-.34,7.93,1.36,15.49,3.39,12.47,3.05,13.22-2.72,9.82-4.07-2.27-5.43-6.42-4.41-11.33,1.02-4.16,.34-7.56-1.7-7.56s-4.41-4.91-5.77-10.96c-1.35-7.55-4.41-11.33-10.18-12.46-7.12-1.52-8.48,0-11.87,15.49-5.77,26.82-2.04,57.42,8.48,66.48,6.79,6.43,8.14,10.21,6.45,19.27-1.36,7.94-.34,12.85,3.39,16.25,3.06,3.02,5.43,7.55,5.43,10.2,0,3.02,4.07,7.17,9.5,9.44,8.49,3.78,8.83,4.53,2.38,7.18-3.73,1.52-8.15,1.52-10.18,0-1.7-1.51-6.79-1.51-10.86,.38-7.13,3.02-9.16,7.93-8.83,21.15,0,2.27-2.03,3.41-5.09,1.9-3.73-1.52-4.75-.38-3.05,4.15,1.02,3.4,.68,6.42-1.02,6.42-3.73,0-4.07-3.02-4.07-22.66,.34-12.85-3.73-18.89-11.88-18.89-2.03,0-4.41,3.02-5.09,6.42-1.02,6.04-1.36,6.04-6.79,0-3.05-3.4-8.14-6.42-10.86-6.42-6.78,0-6.78-.76-.33-17.76,2.71-7.18,5.09-13.98,5.09-14.36,0-.75-6.11-.75-13.58-.75-11.54,.75-13.57,1.88-13.57,8.69,0,4.53-2.38,10.19-5.09,12.84-4.08,3.78-4.42,2.27-2.72-9.06,1.36-9.07,.68-13.6-2.03-13.6-2.04,0-3.74-3.03-3.74-6.8-.34-5.67-.68-6.05-4.41-.38-3.39,5.28-4.75,5.28-8.48,1.13-2.04-2.65-4.08-6.8-4.08-9.07,0-3.02-2.03-3.02-6.78,0-3.74,2.27-8.49,3.03-10.18,1.89-2.04-1.51-3.4,3.78-3.4,12.09,0,14.74,6.79,29.47,17.65,38.16,5.77,4.53,5.77,5.67,1.02,10.96-3.06,3.39-4.75,7.92-4.07,10.19,1.01,3.02-1.7,4.16-8.49,3.02-14.93-2.64-27.49,6.05-24.77,17.01,1.02,4.91,.34,8.68-1.36,8.68-2.04,0-4.41,6.05-5.77,13.23-1.02,7.18-3.39,12.09-5.09,10.95-1.7-1.13-3.73,.38-4.75,3.03-1.02,2.64-5.77,5.29-10.52,5.67-8.48,.38-8.82-.38-7.13-14.36,1.36-12.85,.68-14.74-4.75-14.74-3.39,0-6.45-1.88-6.45-4.15,0-1.89-1.35-2.64-3.39-1.52-1.7,1.14-3.39,.38-3.39-1.88,0-2.65-2.04-3.78-4.75-2.65-3.06,1.51-5.43-1.13-6.79-6.04-1.7-7.93-2.38-7.93-12.56,4.53-8.14,10.21-9.84,15.11-8.14,22.67,5.43,24.55,6.11,31.73,2.03,29.09-5.77-4.16-4.41,7.55,1.36,12.85,6.45,6.04,6.45,15.1,0,15.1-3.05,0-5.09-3.39-5.09-9.44s-2.04-9.45-5.09-9.45c-2.71,0-5.09,2.65-5.09,5.67,0,3.41-2.04,4.53-5.09,3.03-4.41-1.52-5.09,.75-4.75,12.47,.34,8.3,2.37,16.62,4.07,19.25,5.43,7.94-1.02,12.47-18.33,12.47-16.28,0-16.62-.38-14.59-9.44,1.7-7.18,1.02-9.45-2.37-8.69-2.38,.75-6.11-2.64-8.15-7.55-3.39-8.32-15.27-11.71-15.27-4.16,0,3.02-1.7,3.02-5.09-.38-4.41-4.15-5.09-3.02-5.09,5.29q0,10.2-8.48,3.4c-4.42-3.77-8.49-10.19-8.49-14.36s-1.36-9.82-3.05-12.47c-2.38-4.15-3.74-4.15-8.15,.76-3.73,4.54-5.43,4.91-6.78,1.14-1.02-3.4-2.38-3.4-6.45,.37-2.22,2.03-3.75,5.58-4.6,9.89v18.08c.93,5.46,2.7,10.61,5.28,14.35,5.09,7.56,5.43,9.82,1.69,13.22-2.37,1.88-5.43,9.44-6.78,16.25-.07,.36-.13,.71-.19,1.05v10.76c.86,1.38,2.45,2.14,4.94,2.91,5.09,1.52,6.78,4.17,5.43,8.7-1.7,6.04,0,6.8,13.57,6.42,8.82-.38,16.63,1.14,17.99,3.77,1.69,3.03,4.41,3.41,7.46,1.14,3.06-1.89,6.45-1.89,9.17,.76,6.78,6.04,5.43,14.35-2.38,14.35-4.75,0-6.79,2.65-6.79,9.07,0,12.47,8.49,20.03,15.27,13.6,2.72-2.65,5.1-3.4,5.1-1.51s1.35,1.13,2.71-1.52c2.38-3.77,5.09-3.77,12.22-.75,5.09,1.89,12.89,2.65,17.3,1.51,9.51-2.65,42.42,12.47,42.42,19.65,0,8.68-6.44,9.44-13.57,1.5-3.73-4.15-8.14-7.55-9.84-7.55-4.07,0-13.91,10.96-13.91,15.49,0,1.89-2.38,3.41-5.1,3.41s-5.09,3.39-5.09,7.54,2.38,7.94,5.09,7.94c2.72,.38,6.79,1.14,8.49,1.51,2.03,.38,6.45,1.13,10.18,1.51,4.07,.38,5.77,2.27,4.75,5.66-1.36,3.41,1.02,4.92,6.79,4.92,4.75,0,8.82-1.13,8.82-2.64,0-3.78,16.63,0,19.01,4.15,1.01,1.89,5.76,3.4,10.52,3.4,8.14,0,8.48,.76,6.78,13.97-2.71,17.01,3.74,23.43,22.4,23.81,6.79,0,12.56,1.51,12.56,3.78,0,1.88-1.02,3.4-2.72,3.02-8.48-1.88-28.84,6.8-33.26,13.98-4.75,7.94-4.75,10.57,0,26.44,6.45,20.78,6.79,28.72,1.36,27.96-12.21-1.51-15.61,1.14-17.31,14.35-1.69,9.83-.67,15.88,2.72,20.03,2.71,3.39,5.09,8.31,5.09,10.57s3.05,6.05,6.79,8.32c5.09,3.02,6.78,3.02,6.78-.76,0-3.4,.68-3.78,2.72-.75,1.36,2.64,6.45,4.53,11.88,4.53,7.46,0,9.16-1.89,9.16-9.44,0-5.29,1.36-7.94,3.39-6.81,2.04,1.14,5.77-.37,8.83-3.39,8.82-9.83,30.88-14.74,39.02-8.7,6.45,5.29,6.45,5.67-5.09,7.94-8.82,1.88-12.21,4.53-12.21,9.82,0,8.32,15.95,27.58,20.36,24.56,1.36-1.14,3.73,.76,4.75,4.15,3.39,9.45,2.37,12.85-3.06,10.58-3.73-1.89-5.09,.37-5.09,7.55s1.7,9.82,6.45,9.82c3.74,0,7.81,1.9,8.83,3.79,1.35,2.64,4.07,2.64,8.48,0,9.5-5.67,13.57-4.53,13.57,3.39,0,6.43,1.7,7.18,11.88,5.29l11.88-2.26v19.26c0,12.47,1.7,20.41,4.75,22.3,3.05,1.88,4.07,7.17,3.05,15.48-1.69,10.58-2.71,12.09-9.16,9.82-3.73-1.5-8.14-4.53-9.5-6.79-1.7-2.27-2.72-.38-2.72,4.53,0,4.53,2.38,9.44,5.1,10.58,7.46,3.39,6.1,12.84-1.7,12.84-3.73,0-6.79-1.89-6.79-4.15s-3.05-3.41-6.45-2.27c-6.78,1.89-17.64-6.8-23.41-18.89-3.06-5.67-4.07-5.67-9.5-1.14-3.06,3.03-6.79,5.29-7.81,4.91-1.02-.74-2.04,3.79-2.38,9.83,0,6.05-2.03,13.61-4.07,16.62-7.8,10.58,2.38,27.2,18.67,31.36,2.03,.38,8.14,5.29,13.57,10.58,5.43,5.66,12.22,9.44,15.61,8.31,3.06-.75,5.77-.37,5.77,.75,0,1.51,4.75,5.67,10.52,9.07,7.13,4.91,12.22,5.67,16.29,3.02,3.39-1.88,10.86-2.64,16.63-1.88,6.11,.75,10.86,0,10.86-1.89,0-2.28,3.05-3.78,6.45-3.78,4.41,0,7.12,3.4,8.82,11.33l2.38,11.71,11.87-8.31c11.88-8.31,12.22-8.31,16.97-1.14q4.75,7.18,9.84,0c2.72-4.15,4.75-9.44,4.75-11.71,0-8.3,12.9-17.75,22.74-16.24,8.15,1.14,9.5,2.65,8.49,11.33-1.36,13.99,2.03,13.61,6.44-.75,2.72-8.69,6.79-12.09,16.97-15.11,7.47-2.27,16.29-3.03,19.68-1.89,3.4,1.13,12.9,.38,20.71-1.52,8.82-2.26,17.64-2.26,22.73,0,4.41,1.9,12.56,3.79,17.65,4.17,8.48,.75,10.18,2.64,11.88,14.73,1.35,10.19,4.07,15.11,9.84,16.99,4.07,1.52,8.14,3.79,9.16,5.29,3.06,5.67,15.27,6.05,14.25,.38-.67-3.02,1.02-4.15,4.08-3.02,7.8,3.4,9.84-3.77,2.71-9.45-3.39-2.64-7.12-7.55-8.14-10.95-2.04-5.29,0-5.29,20.02,0,17.31,4.54,20.36,6.42,14.59,8.69-6.11,2.64-6.79,4.91-4.75,17,1.36,7.94,3.73,16.24,5.43,18.89,4.75,6.43,0,13.97-5.43,9.06-3.05-2.63-5.77-1.5-9.84,3.41-7.81,10.2-7.47,11.33,3.05,11.33,6.45,0,13.92-5.66,25.46-18.89,18.32-21.15,31.56-24.56,44.45-11.33,4.07,4.15,10.18,7.56,13.58,7.56s8.82,1.5,12.21,3.39c3.06,2.27,10.18,4.53,15.28,6.05,6.78,1.51,9.16,4.15,8.48,8.69-.68,3.4,2.37,10.2,7.13,14.73,4.41,4.91,6.1,8.69,3.73,8.69s-3.39,3.02-2.38,7.55c1.02,4.91,.34,6.8-1.69,4.91-2.04-1.12-5.77,.76-8.15,4.16-2.37,3.78-6.11,6.81-8.82,7.55-8.15,1.14-12.9,6.43-12.9,13.61,0,10.95-7.12,13.6-13.91,4.53-3.06-4.53-8.82-8.31-12.22-8.31s-8.14-3.4-10.52-7.56c-3.73-7.18-4.75-7.18-12.22-1.89-7.46,5.67-8.14,5.3-10.18-2.64-1.69-7.18-2.71-7.56-5.43-3.03-3.05,4.92-3.39,4.92-3.39,0,0-3.39-1.02-4.15-2.71-1.88-1.36,1.88-7.47,3.78-13.92,3.78-16.63,0-21.04,9.44-12.22,27.57,5.43,10.59,8.83,13.6,14.6,13.23,4.41-.76,13.57,1.51,20.36,5.28,16.63,7.94,34.95,9.08,42.08,2.27,4.75-4.9,6.79-4.9,15.61,.38,5.43,3.02,12.22,9.82,15.27,15.11,3.06,4.91,8.82,10.21,12.56,11.71,7.46,2.65,23.75,19.27,23.75,24.18,0,1.89,3.06,7.56,7.13,13.23,7.47,10.95,16.63,13.22,16.63,4.15,0-4.91,1.02-4.91,7.13-1.14,6.1,4.17,7.8,3.79,12.21-3.39,3.06-4.91,7.47-8.69,10.18-8.69s8.83-4.54,13.58-9.83c7.46-8.3,10.18-9.44,15.27-5.66,8.14,5.66,23.08,5.29,23.08-.76,0-7.18-6.79-13.59-12.22-11.33-2.72,1.13-4.75,0-4.75-1.89,0-2.26-5.43-5.29-12.22-6.8-8.48-1.89-10.86-3.78-8.48-6.42,5.43-6.04,4.75-16.62-1.02-18.89-3.4-1.51-6.45,1.51-8.49,7.94l-3.73,10.19,2.04-10.95c2.03-12.47-4.08-19.27-11.2-12.85-5.77,5.29-5.43,16.25,.34,21.91,7.46,6.43,3.05,14.36-6.45,12.09-4.75-.76-7.81-3.02-6.79-4.53,2.72-4.91-2.03-15.12-7.12-15.12-2.72,0-4.76-2.64-4.76-5.66s-2.37-5.67-5.09-5.67c-4.07,0-4.41-1.5-1.69-7.17,1.69-4.16,3.39-13.22,3.39-20.03,0-20.02,4.07-23.8,16.63-16.62,5.77,3.4,10.52,8.69,10.52,11.72,0,7.18,3.39,7.18,15.61,0,5.43-3.03,12.56-4.54,16.63-3.79,8.48,2.27,15.27-3.77,24.09-20.02,5.09-9.82,5.43-13.22,2.04-15.49-2.38-1.5-3.39-5.67-2.04-9.06,1.7-4.91,.34-6.43-5.43-6.43-4.41,0-8.14,3.03-9.16,7.56-1.7,7.55-7.8,10.58-7.8,3.78,0-2.26-1.36-3.78-3.4-3.78-1.69,0-3.39,3.02-3.39,6.43,0,5.66-.68,6.04-3.39,1.12-4.42-7.55-4.42-12.46,0-9.44,2.03,1.14,3.39,.76,3.39-1.51s2.37-3.02,5.77-1.51c4.41,1.88,5.09,.75,3.73-5.66-1.7-6.43-.68-8.32,5.09-8.7,13.24-.75,27.15,1.14,35.3,4.53,4.07,1.52,16.28,4.17,27.14,5.29,10.86,1.14,23.42,3.79,28.17,5.67,4.75,1.51,13.58,4.16,19.34,5.3,15.62,3.01,83.49,36.25,87.9,43.06,5.77,8.69,8.48,66.87,4.75,103.14-1.7,17.37-3.73,51.37-4.75,75.17-1.36,23.8-4.75,55.16-7.81,69.89-5.76,26.07-21.71,58.55-28.5,58.55-2.04,0-7.81,3.41-12.9,7.18-4.75,4.16-16.63,8.32-25.79,9.83-9.5,1.51-20.7,4.54-25.45,6.42-13.92,6.04-289.14,2.27-359.72-4.91-23.42-2.26-85.86-4.91-139.14-5.67-53.28-.76-141.86-3.39-196.49-5.29-55.32-2.26-139.48-3.01-187.67-1.51l-65.55,1.48v644.55ZM549.14,205.76c-1.02,4.53-2.72,7.18-3.73,6.04-1.7-2.27,1.69-13.6,4.07-13.6,.68,0,.68,3.41-.34,7.56ZM132.74,782.63c-3.73,4.16-6.44-2.26-3.73-9.06q2.71-6.43,4.07,0c1.02,3.77,.68,7.93-.34,9.06Zm64.14,5.3c3.06-6.05,5.09-4.92,2.72,1.5-1.02,3.41-2.72,5.29-3.4,4.16-1.01-1.13-.68-3.4,.68-5.66Zm-26.13,41.18c-5.43,0-9.5-1.9-9.5-3.79,0-4.91,6.79-4.91,13.57,0,4.08,3.03,3.06,3.79-4.07,3.79Zm4.07-41.56c0-2.27,2.38-3.79,5.43-3.79,2.72,0,4.08,1.52,3.06,3.79-1.02,1.88-3.4,3.77-5.43,3.77-1.7,0-3.06-1.89-3.06-3.77Zm5.43,17c-1.35-4.16,4.75-11.71,10.52-13.23,0,0-.34,3.4-1.35,7.56-2.38,10.2-6.45,12.84-9.17,5.67Zm30.89,71.4c-2.04-4.16-6.11-4.92-14.6-3.03-9.84,1.89-11.2,1.52-9.5-4.15,1.36-3.78,4.75-5.67,8.15-4.53,3.39,.75,8.14,.38,10.52-1.51,2.71-1.52,6.1-1.52,7.8,.37,2.04,2.26,5.09,1.89,7.81-.37,3.05-3.03,4.41-3.03,4.41-.38,0,2.27,1.02,6.42,2.03,9.44,2.38,7.56-12.89,11.71-16.62,4.16Zm27.14,114.46c-7.12,8.32-10.86,4.16-5.76-6.42,3.05-6.05,5.09-7.17,7.8-4.15,2.72,3.02,2.38,6.04-2.04,10.57Zm17.31-90.66c-1.02,6.79-11.88,9.82-14.93,4.15-1.36-2.27-3.39-1.89-5.09,1.14-2.38,4.15-3.05,4.15-3.05-1.14,0-4.15-2.04-5.66-6.79-4.15-9.84,3.02-8.83-9.45,1.02-13.98,11.87-5.29,22.73-4.53,22.73,1.89,0,3.02,1.7,5.67,3.74,5.67s3.05,2.64,2.37,6.42Zm13.24,11.33c4.41-5.28,11.2-2.27,11.2,4.91,0,4.16-1.36,7.56-3.06,7.56-4.41,0-10.86-9.83-8.14-12.47Zm12.55,56.67c-1.69,1.89-4.07,4.53-5.43,6.8-1.35,2.27-2.71,.76-2.71-3.03,0-3.4,2.37-6.41,5.77-6.41,3.05,0,4.07,1.12,2.37,2.64Zm10.52-29.85c-1.69,1.51-1.69,.38-.34-2.26,3.4-6.42,7.81-5.67,10.19,1.5,1.69,4.91,1.35,5.29-2.38,2.27-2.72-2.64-6.11-3.02-7.47-1.51Zm10.52,22.29q-2.37-7.93-5.43-.75c-2.03,5.67-3.05,6.05-3.05,1.5-.34-5.28,2.38-10.95,5.43-10.95,.68,0,4.07,3.41,7.47,7.18,3.73,4.15,5.76,8.32,4.75,9.44-4.08,4.16-7.13,2.27-9.17-6.42Zm12.9,67.25c-1.36,3.02-3.39,5.66-5.09,5.66s-3.06-2.64-3.06-5.66,2.38-5.67,5.1-5.67c3.05,0,4.07,2.27,3.05,5.67Zm11.54-143.19c-3.4,3.79-9.5-2.25-9.5-9.06,0-5.66,.34-5.66,5.76,.38,3.06,3.4,4.76,7.17,3.74,8.68Zm7.46-13.59c0-2.27,3.06-3.78,6.79-3.78s6.79,1.51,6.79,3.78c0,1.88-3.06,3.78-6.79,3.78s-6.79-1.9-6.79-3.78Zm15.28,312.81c-4.76-2.28-8.49-5.67-8.49-7.56,0-4.91,5.77-3.4,11.54,3.01,7.47,8.32,6.79,9.45-3.05,4.55Zm8.82-327.92c-2.04,0-3.73-1.9-3.73-3.78,0-2.27,.67-3.78,1.35-3.78,1.02,0,2.72,1.51,3.74,3.78,1.01,1.88,.34,3.78-1.36,3.78Zm62.78-263.31c1.02,1.12,1.36,4.53,.34,7.16-1.02,3.03-2.04,1.9-2.04-2.25-.34-4.17,.68-6.43,1.7-4.91Zm-47.85,282.2c-2.71,0-5.09-.76-5.09-1.52s-1.02-4.53-2.04-7.93c-1.69-4.91-.67-6.04,3.74-5.29,3.39,.75,8.14,7.56,10.52,15.87,2.37,7.93,3.05,13.22,1.35,12.09-2.03-1.51-3.39-4.92-3.39-7.94s-2.37-5.28-5.09-5.28Zm79.07,313.93c-2.37,1.9-5.43,1.14-6.79-1.51-1.69-3.02-2.71-2.27-2.71,2.27,0,3.78-1.7,5.67-3.39,4.53-2.04-1.13-4.42,.38-5.43,3.4-1.02,3.4-3.4,4.92-5.09,3.78-1.7-1.13-3.06-.38-3.06,1.51s-4.75,2.65-10.52,1.51c-6.79-1.14-11.2-4.53-13.23-10.58-3.06-8.69-10.18-12.84-10.18-5.66,0,1.89-3.06,2.65-6.79,1.51-10.86-3.4-7.81-11.71,6.11-15.87,31.56-9.06,34.61-9.44,34.61-3.02,0,3.02,4.07,5.29,9.84,5.29,12.56,0,23.08,8.31,16.63,12.84Zm.68-346.05c-1.7,1.14-3.39,.38-3.39-1.5,0-2.27,1.69-4.17,3.39-4.17,2.04,0,3.39,.76,3.39,1.52,0,1.13-1.35,3.03-3.39,4.15Zm581.33-69.89c2.71,0,5.77,2.27,6.78,4.91,1.7,5.29-3.05,17-5.43,13.98-1.01-1.13-2.71-5.66-3.73-10.57-1.7-6.05-1.02-8.32,2.38-8.32Zm-6.45,154.9c2.71,0,6.11,1.51,7.13,3.77,1.01,1.89-.34,3.78-3.06,3.78s-6.11-1.89-7.13-3.78c-1.01-2.26,.34-3.77,3.06-3.77Zm-3.73,328.66c-3.74,0-24.78-16.62-24.78-20.01,0-4.91,4.08-2.65,15.95,8.68,6.11,6.04,10.18,11.33,8.83,11.33Zm-43.1-503.21c3.05-5.66,8.82-3.39,10.52,4.55,1.02,4.15,3.05,6.42,4.75,5.66,3.39-2.65,11.2,12.85,8.48,16.24-3.05,3.02-25.79-22.28-23.75-26.45Zm7.12,390.63c-1.01,3.03-2.03,1.89-2.03-2.26-.34-4.15,.68-6.42,1.69-4.91,1.02,1.13,1.36,4.53,.34,7.17Zm-22.73-.74c-3.74,0-6.79-1.9-6.79-4.17,0-6.42,10.86-2.26,14.93,6.05,2.04,4.16,5.77,9.07,8.15,10.57,4.75,3.79,5.43,17.76,.67,17.76-1.69,0-3.39-1.88-3.39-3.78,0-2.27-2.04-3.77-4.07-3.01-2.38,.38-9.5-1.52-15.61-4.17-12.22-5.66-9.5-11.71,5.43-11.71,4.07,0,7.46-1.88,7.46-3.77,0-2.27-3.05-3.77-6.78-3.77Zm12.21-197.97c-4.75,6.8-5.09,6.43-10.18-6.8-7.8-20.77-6.45-23.04,7.47-12.09,8.82,6.8,9.16,9.07,2.71,18.89Zm-15.61-44.2c0-4.91,2.04-4.16,6.79,2.27,3.73,4.91,3.39,5.29-1.36,3.4-3.05-1.13-5.43-3.78-5.43-5.67Zm15.61-86.13c1.02,2.27-1.69,1.13-6.78-2.27-4.75-3.78-8.83-7.17-8.83-8.31,0-2.65,13.24,6.42,15.61,10.58Zm-16.96-33.62c6.1,7.55,6.1,7.92,.33,5.66-3.39-1.51-7.8-2.65-9.5-2.65s-3.05-2.63-3.05-5.66c0-7.93,4.75-7.18,12.22,2.65Zm-9.17,347.56c3.74,11.33,1.02,14.36-4.75,5.66-3.73-5.66-5.77-6.42-11.88-2.65-9.5,5.68-13.23,1.52-4.75-5.66,9.51-7.93,17.99-6.79,21.38,2.65Zm-19,56.28c-2.38,10.21-6.79,8.69-9.5-3.4-1.36-5.66-3.4-7.93-4.08-5.66-2.71,7.94-9.16,5.66-13.57-4.53q-4.75-11.34,13.57-1.52c11.54,6.43,14.6,9.82,13.58,15.11Zm14.59-133.73c-3.73,4.15-19,4.53-21.04,.38-1.36-2.65-.68-3.02,1.7-1.52,2.37,1.9,4.41-1.13,5.77-8.68l2.03-11.71,6.79,9.82c3.73,5.29,6.11,10.57,4.75,11.71Zm-12.56-233.1c-1.69,0-2.37-1.88-1.35-3.77,1.02-2.27,2.71-3.78,3.73-3.78,.68,0,1.36,1.51,1.36,3.78,0,1.89-1.7,3.77-3.74,3.77Zm-11.53-64.22c4.75,0,8.48,1.51,8.48,3.79,0,1.88,2.04,2.63,4.75,1.5,7.47-3.02,2.72,12.85-5.09,17.38-9.16,5.67-16.63,.37-16.63-11.72,0-9.06,1.36-10.95,8.49-10.95Zm-3.06,128.83c3.06,5.67-7.8,3.78-11.88-1.89-3.39-4.53-2.71-4.91,3.06-3.41,3.73,1.14,7.8,3.41,8.82,5.3Zm-12.21-19.27c4.07,3.02,3.73,3.78-2.38,3.78-4.41,0-7.81-1.89-7.81-3.78,0-4.91,3.74-4.91,10.19,0Zm2.71,36.27c5.09,2.64,11.2,5.29,13.57,5.29,6.11,0,14.6,23.42,10.52,28.33-2.37,2.27-4.41,1.89-6.44-1.89-2.38-4.53-4.08-4.53-7.47-.76-6.45,7.18-23.08,5.67-23.08-2.26q-.34-6.04-4.75,.38c-4.41,6.05-5.09,6.05-10.18-3.03-4.41-7.54-6.78-8.68-11.88-6.04-3.39,2.27-7.12,2.65-8.48,1.51-1.02-1.13-2.04,.38-2.04,3.4,0,3.4,2.38,6.8,5.09,8.31,5.77,2.27,7.13,13.61,1.7,13.61-2.03,0-4.41-2.65-5.43-5.67-3.05-8.32-8.14-6.8-8.14,2.26q0,7.56-13.58-.76c-7.46-4.91-13.57-9.44-13.57-10.57,.34-5.67,6.11-11.33,14.59-13.59,7.47-2.28,9.16-1.52,9.16,4.15,0,9.82,4.08,3.39,5.43-8.7,.34-5.66-.68-11.71-3.05-13.21-2.38-1.51-1.02-4.16,4.41-6.42,10.52-4.92,41.06-1.52,53.62,5.66Zm-36.65,88.4c0,1.88-1.36,3.78-3.06,3.78-2.03,0-4.41-1.9-5.43-3.78-1.01-2.27,.34-3.78,3.06-3.78,3.05,0,5.43,1.51,5.43,3.78Zm-45.48,84.25c-1.69-5.68-1.01-5.3,3.06,.75,5.09,6.8,4.75,7.56-.34,8.69-3.05,.76-7.13-.76-9.5-3.4-2.72-3.4-2.38-3.78,2.71-1.89,4.75,1.89,5.77,.76,4.07-4.15Zm3.4-60.45c-5.43,2.26-17.65-15.11-13.92-19.27,1.36-1.51,9.85-2.65,19.01-2.65s16.63-1.88,16.63-3.77c.34-2.27,2.71,.76,5.43,6.8,2.71,5.67,4.07,12.09,3.05,13.98-1.36,2.26-3.73,3.02-5.43,1.51-2.03-1.14-7.13,1.51-11.88,6.42-7.12,7.56-8.14,7.56-8.14,1.89,0-4.53-1.7-6.04-4.75-4.91Zm28.5-836.03c1.7,0,2.38,2.65,1.36,5.66-1.36,3.03-2.71,5.67-3.39,5.67s-1.36-2.64-1.36-5.67,1.36-5.66,3.39-5.66Zm-32.91,697c5.77,1.52,15.27,4.91,21.04,7.18l10.18,4.53-11.2,6.05c-5.77,3.41-10.86,4.53-10.86,2.65s-3.73-5.29-8.15-7.94c-4.75-2.27-9.16-6.42-10.18-9.44-1.69-4.54,.34-4.91,9.17-3.03Zm-15.61,99.74c1.35-5.29,2.71-6.43,4.41-3.4,1.69,3.4,3.05,3.4,4.75,.38,1.36-2.27,1.36-6.04,.34-7.94-2.72-4.91,7.12-4.91,15.61,0,3.39,2.27,6.45,7.56,6.45,11.34,0,6.42-2.38,7.55-16.63,7.55-15.27,0-16.63-.75-14.93-7.93Zm-23.42,88.02c6.11-4.53,24.43-.75,24.43,4.92,0,7.55-3.73,17-6.78,17-1.36,0-6.79-4.16-12.22-9.45-7.13-7.17-8.82-10.2-5.43-12.47Zm4.07,148.47c0,5.3-1.36,9.45-3.39,9.45-1.7,0-3.4-1.89-3.4-3.78,0-2.64-2.03-2.64-6.44-.37-7.81,4.91-10.18,2.26-8.15-7.56,1.36-4.91,4.75-7.18,11.54-7.18,8.15,0,9.84,1.51,9.84,9.44Zm12.56-252.36c.68,2.65,.68,7.94,0,11.34-1.02,3.77-1.7,1.51-1.7-4.53,0-6.43,.68-9.08,1.7-6.81Zm-2.38,36.65c0,1.14-1.35,3.02-3.39,4.15-1.7,1.14-3.39,.38-3.39-1.51,0-2.26,1.69-4.15,3.39-4.15,2.04,0,3.39,.75,3.39,1.51Zm-6.11-225.16c3.06,16.62-22.05,26.82-30.2,12.47-4.75-8.32-1.7-12.85,12.9-18.51,9.84-4.16,15.95-2.27,17.3,6.04Zm-10.86,151.87c-4.41,0-6.1-1.88-4.75-5.67,1.36-3.02,3.4-5.67,4.75-5.67s3.4,2.65,4.76,5.67c1.35,3.79-.34,5.67-4.76,5.67Zm-10.85-13.6c-2.38,3.02-5.1,4.53-5.77,4.16-1.7-2.27,3.39-9.45,6.78-9.45,1.7,0,1.36,2.27-1.01,5.29Zm-74.66-72.53c-3.06-3.79-2.72-6.05,1.01-8.7,9.17-6.42,14.94-1.88,14.94,11.71,0,14.36-6.11,24.94-12.22,20.79-2.04-1.52-2.72-6.43-1.7-10.58,1.02-4.54,0-10.21-2.03-13.22Zm7.46-70.27c0-3.41,1.7-6.04,3.4-6.04,2.03,0,3.39,1.5,3.39,3.39,0,2.27-1.36,4.91-3.39,6.05-1.7,1.13-3.4-.38-3.4-3.4Zm7.81,104.64c3.05,1.14,6.11-.38,7.12-3.39,2.04-6.05,8.83-7.18,8.83-1.14,0,2.26,3.39,3.4,7.8,3.02,9.84-1.51,15.95,3.03,15.95,12.09,0,6.04-1.02,6.8-6.45,3.41-3.73-1.9-8.82-2.65-11.53-1.52-2.72,1.14-6.11,0-7.47-2.27-1.7-2.64-3.73-3.02-6.45-.38-2.71,2.65-5.43,1.52-8.48-4.15-3.73-6.8-3.73-7.56,.68-5.67Zm11.2-207.78c1.01,1.14,1.35,4.53,.34,7.18-1.02,3.02-2.04,1.89-2.04-2.27-.34-4.15,.68-6.42,1.7-4.91Zm6.78,0c1.02,1.14,1.36,4.53,.34,7.18-1.02,3.02-2.03,1.89-2.03-2.27-.34-4.15,.68-6.42,1.69-4.91Zm16.97,99.36c1.02-3.02,5.09-4.16,10.18-3.02,8.49,1.51,8.49,1.88,1.36,7.18-7.47,6.04-14.25,3.77-11.54-4.16Zm42.08-89.54c0,4.54-1.36,7.18-3.39,6.04-1.7-1.12-3.4,.38-3.4,3.79,0,4.91-1.01,4.91-6.78-1.14-4.41-4.53-6.11-9.44-4.75-13.22,1.01-3.77,.34-6.42-1.7-6.42s-2.72-2.64-1.7-5.67c2.72-7.18,8.15-3.4,8.15,5.67,0,4.9,1.69,6.42,6.78,4.9,5.1-1.5,6.79,0,6.79,6.05Zm-15.61-84.24c2.72,1.13,4.07,4.53,3.06,7.55-1.02,3.03,0,5.29,2.03,5.29s3.73,2.65,3.73,5.68c0,8.3-7.46,6.79-15.95-3.41-12.21-13.98-8.48-21.91,7.13-15.11Zm-16.29-21.16c2.72,0,4.07,1.51,3.06,3.79-1.02,1.88-3.4,3.77-5.43,3.77-1.7,0-3.06-1.89-3.06-3.77,0-2.28,2.38-3.79,5.43-3.79Zm-22.06-498.68c1.7,0,3.06,3.03,3.06,6.43s2.71,9.83,6.11,13.98q5.77,7.94-1.7,1.13c-7.47-7.18-12.56-21.54-7.47-21.54Zm2.38,463.55c-2.72-1.52-3.06-2.26-.68-2.26,2.04-.38,5.77,1.88,7.81,4.91,2.71,3.77,3.05,6.04,.34,7.92-1.7,1.14-3.4,0-3.4-3.39,0-3.03-2.03-6.43-4.07-7.18Zm-1.02,69.13c-3.05,0-4.41-1.88-3.39-3.78,1.02-2.26,2.71-3.77,3.39-3.77s2.38,1.51,3.39,3.77c1.02,1.9-.33,3.78-3.39,3.78Zm-10.18-506.23c2.04-3.77,8.48-5.28,8.48-2.27,0,.76-2.37,2.65-5.43,3.79-2.71,1.13-4.07,.75-3.05-1.52Zm-17.31,394.41c3.06,4.16,5.43,9.07,5.43,11.33,0,4.54-1.69,2.65-6.45-9.06q-3.73-9.07,1.02-2.27Zm-17.98,40.43c3.05-.38,9.16,3.01,13.57,7.17,4.41,3.78,6.11,7.18,4.07,7.56-2.37,0-4.41-1.52-4.41-3.02,0-1.89-4.07-4.92-9.16-7.18-5.77-2.27-7.13-4.17-4.07-4.53Zm.34,83.11c2.37-4.54,4.75-6.42,5.43-4.16,.67,1.89,7.46,2.65,15.95,1.13,13.91-1.89,15.27-1.51,18.32,7.94,4.07,11.71,10.52,12.85,12.9,2.64,2.71-11.33,16.29-4.15,16.29,8.69,.34,5.29-.68,9.82-1.7,9.82-1.02-.38-11.54-2.64-23.76-5.67-11.87-2.63-23.07-4.15-24.43-3.39-1.36,1.12-4.41-1.52-6.79-6.05-4.75-8.31-12.89-10.2-12.89-3.02,0,2.27-1.02,3.4-2.04,2.27-1.02-1.14,.34-6.05,2.72-10.2Zm1.01,158.29c4.76,10.57,4.76,11.33-.67,11.33-3.4,0-9.17-3.03-12.9-6.04q-6.79-5.67-.34-11.34c8.48-6.8,7.81-7.18,13.91,6.05Zm-15.27-245.57c3.74,0,6.79,1.52,6.79,3.41s-3.05,2.64-6.79,1.5c-3.73-1.12-6.78-2.64-6.78-3.39s3.05-1.52,6.78-1.52Zm-22.06,26.45c1.02,1.89,1.02,5.67-.34,8.31-1.69,3.03-3.73,2.27-6.78-2.26-2.38-3.79-5.77-5.67-7.81-4.16-2.03,1.13-3.73,.37-3.73-1.51,0-5.29,15.95-5.29,18.66-.38Zm-18.66-25.69c4.75,0,6.45,.76,4.41,1.89-2.37,.76-6.45,.76-8.48,0-2.38-1.13-.68-1.89,4.07-1.89ZM589.18,19.51c2.38,2.65,3.4,5.66,2.38,6.8-1.02,1.13-3.05-.76-4.07-4.53-2.04-5.29-1.7-5.67,1.69-2.27Zm16.29,738.57c8.49-.75,16.29-2.27,16.97-3.03,1.02-1.13,3.06,1.14,4.75,4.54,2.72,4.9,3.74,5.28,6.11,1.13,2.04-3.77,3.06-3.02,3.06,3.41,0,4.91,2.37,11.71,5.43,15.1,5.09,5.29,6.1,5.29,11.53-3.39l6.45-9.07,9.5,7.93c7.81,6.8,9.17,10.58,8.49,21.15-1.02,10.58,.34,13.99,6.79,17.38,4.41,2.27,5.76,4.17,3.73,4.17-2.38,.36-4.41,3.01-4.41,6.41,0,3.03,1.69,4.54,3.39,3.4,2.04-1.13,3.39,1.9,3.39,7.18,0,4.91,2.04,10.2,4.42,10.96,2.03,1.13-1.02,1.51-6.79,1.51-6.11-.38-11.2-1.89-11.2-3.78,0-1.52-2.38-2.64-5.09-2.64s-5.09,2.64-5.09,5.66-2.38,5.67-5.09,5.67-5.09-1.89-5.09-3.78c0-2.26-4.41-3.78-9.84-3.78-13.92,0-20.71-12.09-20.71-37.02,0-13.97-1.01-19.26-3.73-17.38-2.71,1.51-3.39,9.83-2.03,22.66,1.01,12.09,.67,20.41-1.36,20.41-6.45,0-28.51-14.36-41.74-27.2-10.52-10.2-12.56-14.36-10.86-21.16,3.73-12.47,21.38-24.56,39.02-26.44Zm85.18,100.11c0,1.13-2.37,1.13-5.09-.37-2.71-1.14-5.09,0-5.09,2.26s-1.02,3.4-2.03,1.89c-3.74-3.78,2.03-9.82,7.12-7.56,2.72,1.14,5.09,2.65,5.09,3.78Zm-46.49,199.09c3.06-1.89,3.06-1.51,0,2.27-6.45,7.55-17.31,7.17-23.75-1.13-5.77-6.8-5.77-7.56,1.35-13.98,7.47-6.43,23.08-6.43,26.81,.37,1.02,1.9-.68,3.41-3.39,3.41-3.06,0-5.43,2.64-5.43,6.05s1.7,4.53,4.41,3.01Zm-27.49-160.18c3.06,0,6.79,1.89,7.81,4.15,3.73,6.43,0,7.56-7.13,1.52-5.77-4.91-5.77-5.29-.68-5.67Zm34.62,174.16c3.73-.37,5.77,.76,4.41,1.89-1.02,1.13-4.07,1.51-6.45,.37-2.71-1.13-1.7-2.26,2.04-2.26Zm2.03-172.27c-1.69,1.14-3.39,.38-3.39-1.51,0-2.27,1.7-4.15,3.39-4.15,2.04,0,3.4,.75,3.4,1.5,0,1.14-1.36,3.03-3.4,4.16Zm-86.87-489.23c1.02,0,2.71,1.51,3.73,3.78,1.02,1.88,.34,3.78-1.36,3.78-2.03,0-3.73-1.9-3.73-3.78,0-2.27,.68-3.78,1.36-3.78Zm2.03,347.57c2.04,0,3.4,.75,3.4,1.5,0,1.13-1.36,3.03-3.4,4.16-1.69,1.14-3.39,.38-3.39-1.51,0-2.27,1.7-4.15,3.39-4.15Zm-22.06,45.33c2.04,0,5.77,1.89,8.49,3.77,2.71,1.89,3.73,3.78,1.7,3.78-1.7,0-5.77-1.89-8.49-3.78-2.71-1.88-3.39-3.77-1.7-3.77Zm-27.14,6.8q4.75-4.15,29.18,5.29c13.58,5.66,21.72,10.95,21.72,14.36,0,3.01,2.04,5.28,4.75,4.53,6.45-1.52,47.51,18.89,47.85,23.8,0,6.04-37.67,3.39-41.4-2.65-2.38-3.78-3.73-3.78-7.47,1.51-3.05,4.91-5.43,5.29-8.14,2.27-2.04-2.27-13.92-10.21-26.81-18.13-22.4-13.23-28.85-23.42-19.68-30.98Zm90.61,116.35c-2.38-1.51-4.08-.76-4.08,1.52s-1.69,3.01-3.39,1.89c-3.73-2.65-1.36-9.45,3.39-9.45,1.7,0,4.08,1.89,5.43,4.53,1.36,2.65,1.02,3.03-1.35,1.51Zm-49.89-47.22c4.75,0,5.43,.76,1.7,2.27-2.72,1.14-6.45,4.91-8.15,7.93-2.37,4.54-3.39,4.54-5.77,.37-3.05-6.04,2.38-10.95,12.22-10.57Zm-16.63-9.82c1.36-3.03,3.39-4.53,5.09-3.41,1.7,1.14,2.38,3.79,1.36,5.67-3.4,5.68-8.49,3.78-6.45-2.26Zm-19.68,125.43c20.7-3.41,23.41-2.65,27.49,7.17,3.39,8.31,3.05,9.45-.68,7.93-2.72-1.13-11.88-3.39-20.7-4.53-17.31-3.03-20.37-7.94-6.11-10.57Zm-8.83,133.73c6.11,0,11.54,10.95,5.77,10.95-2.03,0-3.05,3.41-2.03,7.56,1.02,4.15,.68,7.56-.68,7.56-1.7,0-5.43-3.41-8.82-7.56-3.4-4.15-9.51-7.56-13.58-7.56-3.73,0-10.18-2.64-13.91-6.04-3.4-3.02-4.41-4.91-2.04-3.4,2.04,1.14,4.07,.38,4.07-2.27s4.08-3.4,12.9-1.88c6.79,1.12,15.27,2.26,18.32,2.64Zm-8.14-537.21c3.73,4.91,3.05,6.43-5.09,8.68-6.79,1.9-10.18,1.14-12.22-3.01-2.71-5.29-3.73-4.91-9.16,1.13-4.07,4.53-4.75,8.31-2.72,11.34,2.38,3.39,2.38,4.91,0,4.91-1.69,0-4.41-2.65-5.43-6.05-1.01-3.03-3.39-4.91-5.09-3.39-1.69,1.12-4.07,.36-5.09-1.52-6.44-10.95,36.65-22.66,44.8-12.09Zm-25.45,612c-16.29,5.3-25.12,5.3-18.33,.76,2.72-1.88,3.73-6.04,2.04-11.71-1.7-6.04-1.36-7.93,2.03-6.8,2.72,1.13,4.42,4.54,3.74,8.31-.68,3.4,.68,6.05,2.71,6.05,1.7,0,3.4-2.65,3.4-6.05,0-4.15,1.69-5.28,5.43-3.77,3.05,1.12,6.78,2.26,8.48,2.26,8.14,0,1.7,7.56-9.5,10.95Zm25.45,.76c-6.45,4.91-9.5,4.16-9.5-2.26s.68-6.8,8.48-3.41c4.41,1.9,4.75,3.03,1.02,5.67Zm14.25-30.6c-3.73-6.41-16.63-8.68-22.06-3.78-3.05,3.03-5.43,1.14-8.48-7.18-3.05-9.06-5.77-10.95-12.9-9.81-11.19,1.13-16.62-1.9-10.52-6.05,7.47-5.29,10.19-4.15,39.71,11.71,15.27,7.94,27.83,16.62,27.83,18.52,0,5.28-10.18,2.63-13.58-3.41Zm20.03-23.04c-3.4,5.66-5.43,6.42-9.17,3.4-3.73-3.78-3.05-5.29,3.4-9.07,9.84-5.67,11.19-4.53,5.77,5.67Zm40.38-95.57c-2.04,1.5-4.75,0-6.45-2.65-2.71-4.53-3.73-4.53-6.45,.37-2.37,3.78-4.07,4.54-5.77,1.52-1.69-2.27-6.1-5.29-10.18-6.8-4.07-1.52-8.82-7.56-10.86-13.61-3.05-10.19-2.71-11.33,3.4-11.33,3.73,0,9.16,2.27,11.88,5.29,2.71,3.03,4.75,7.56,4.75,9.82,0,2.65,2.03,3.03,6.44,0,4.76-2.64,7.47-2.64,8.83,0,1.69,3.03,3.73,2.65,6.78,0,3.4-3.4,6.45-3.4,10.86,0,5.43,3.78,5.43,4.16,.34,2.27-9.16-3.02-7.12,4.91,2.38,9.82,4.41,2.27,7.47,5.66,6.11,7.93-1.02,2.27,.68,6.05,4.07,9.08,5.43,4.15,5.43,4.91,1.02,4.91-9.5,0-15.95-4.17-14.26-9.46,2.04-5.28-7.46-10.57-12.89-7.16Zm8.82,88.77c3.74-.37,5.77,.75,4.41,1.89-1.01,1.13-4.07,1.51-6.44,.37-2.72-1.13-1.7-2.26,2.03-2.26Zm86.54,54.02c-2.72-1.5-3.05,0-1.36,5.66,3.06,11.35-6.45,10.59-22.06-1.5-13.23-10.21-24.43-9.45-23.41,1.5,1.02,10.97-.34,12.85-5.43,7.94-2.72-2.64-5.09-8.31-5.09-12.85-.34-9.81-15.27-22.66-24.1-20.01-8.48,2.64-11.54-3.41-3.73-7.18,3.05-1.52,6.79-3.03,8.14-3.03,1.02-.38,3.06-1.5,4.08-2.64,4.07-4.53,17.3-.75,18.32,5.29,.68,3.4,3.4,6.42,6.11,6.42s4.75,1.9,4.75,3.78c0,2.65,4.41,3.03,11.88,1.51,8.82-1.89,14.59-.38,23.76,6.05,6.44,4.53,11.87,9.06,11.87,9.81,0,1.14-1.69,.76-3.73-.75Zm1.36-134.49c-2.38,2.65-4.41,8.32-4.41,12.09,0,4.91-2.38,6.8-6.79,6.42-8.83-.75-8.83-8.69,0-11.33,5.77-1.51,6.45-4.15,4.75-11.71-1.7-7.18-.68-9.82,3.05-9.82,2.72,0,5.77,2.26,6.45,4.53,1.02,2.64-.34,7.18-3.05,9.82Zm2.37-140.91c-1.69,1.13-3.39-.38-3.39-3.77s-2.04-5.67-4.07-5.3c-9.51,1.13-12.9-.75-12.9-7.93,0-8.32,5.09-10.2,8.15-3.03,1.35,3.79,3.05,3.03,6.1-1.88,5.09-7.56,9.17-8.31,11.54-1.13,1.02,3.01,5.09,4.15,10.18,3.01,7.13-1.5,8.15-.38,8.15,9.83,0,9.44-1.36,11.33-10.18,12.84-5.43,1.13-10.18,.38-10.18-1.51s-1.36-2.27-3.4-1.13Zm23.08,146.2c-.68,5.29-3.73,9.07-7.81,9.45-3.73,.75-4.75,0-2.37-1.14,2.03-1.13,4.07-5.28,4.07-9.45,0-3.77,1.7-7.17,3.73-7.17s3.06,3.78,2.38,8.31Zm1.7,127.7c-4.42,0-8.83,2.25-9.85,5.28-2.71,7.93-10.52,3.4-12.21-7.18-1.36-6.04-.34-8.31,3.05-6.8,2.38,1.14,4.41-.76,4.41-4.53,0-3.41,1.02-5.29,2.72-4.53,1.36,1.12,5.43,.38,9.16-1.51,10.18-4.54,10.86-4.16,12.56,6.04,2.03,11.33,.68,13.23-9.84,13.23Zm59.05,98.97c-1.02,3.02-2.04,1.89-2.04-2.27-.34-4.15,.68-6.42,1.7-4.91,1.01,1.14,1.35,4.53,.34,7.18Zm-5.77-342.65c-7.13-2.65-9.51-9.45-3.4-9.45,2.04,0,3.4-1.88,3.4-3.77,0-5.29-6.79-4.53-17.65,1.51-8.48,4.91-9.5,4.91-9.5-.38,0-4.15-2.72-5.28-9.84-4.15-8.83,1.5-9.85,.37-11.88-11.34-1.02-7.55-1.02-14.73,0-16.62,2.37-4.16,7.12-3.78,9.84,.75,1.02,1.9,.34,3.79-1.36,3.79-2.03,0-3.73,2.64-3.73,5.67,0,6.41,5.43,7.54,8.48,1.88,2.72-4.91,10.86-2.64,45.48,12.84,27.83,12.85,38.01,18.89,24.43,14.74-5.09-1.51-7.13-.38-7.13,4.53,0,4.16-1.69,5.67-5.09,4.16-3.05-1.14-5.09,0-5.09,3.02s3.74,6.43,8.15,7.55c10.86,3.03,13.91,12.47,5.09,15.5-7.47,2.64-23.42-12.85-23.42-22.67,0-2.65-3.05-6.42-6.78-7.56Zm11.87,440.11c-2.71-2.64-5.09-5.28-5.09-6.04s2.38-.37,5.09,.76c2.72,1.51,5.09,4.16,5.09,6.04,0,2.27-2.03,1.89-5.09-.76Zm7.13,32.88c2.72-8.32,11.54-6.05,11.2,2.63,0,4.55-1.36,11.35-3.06,15.5-2.37,7.18-3.05,6.8-6.44-2.65-2.04-5.66-2.72-12.85-1.7-15.48Zm-2.04-88.03c-4.41,13.23-10.18,12.47-10.18-1.51,0-8.69,1.36-11.33,6.79-11.33,3.73,0,6.79,.75,6.79,1.51,0,1.13-1.36,6.05-3.4,11.33Zm27.15-40.04c-6.44,4.53-6.78,4.15-4.75-4.92,1.02-5.29,.68-9.44-.68-9.82-1.69,0-6.44-.75-10.52-1.13-4.41-.76-7.8,.75-7.8,2.65,0,2.26-.68,3.01-1.7,1.88s-1.02-4.91,.34-8.31c2.04-6.04,10.18-7.93,19.68-3.78,3.06,1.13,5.43,5.3,5.43,9.07s1.7,7.56,3.4,8.32c2.03,.74,.34,3.39-3.4,6.04Zm66.18-39.29c-3.73-1.9-4.07-3.4-.68-7.56,5.43-6.79,5.77-6.42,5.77,2.27,0,4.91-1.7,6.8-5.09,5.29Zm-2.72-27.96c-2.03,9.44-18.32,13.98-27.48,7.56-5.77-4.16-7.47-3.78-11.54,3.4-6.11,9.82-10.86,10.19-10.86,.38,0-8.7-5.09-10.2-7.81-1.9-1.36,3.03-5.09,4.54-9.16,3.79-3.73-.76-6.79,.38-6.79,3.01,0,2.28-2.37,1.52-5.77-2.26-5.43-6.04-5.43-6.8,.68-12.08,12.22-10.59,18.67-13.99,18.67-9.46,0,2.27,1.69,3.03,3.39,1.9,2.04-1.14,3.39-.38,3.39,2.26,0,2.27,6.45-1.89,14.6-9.07q16.96-16.24,14.25-6.42c-1.7,5.29-.68,7.56,3.05,7.56,3.06,0,5.43-2.65,5.43-5.67,0-7.55,16.29-7.18,25.46,.38q6.78,5.67-.68,7.55c-4.08,1.14-7.81,5.3-8.83,9.07Zm170.02,77.07c-17.64-6.04-53.62-25.31-53.62-28.71,0-2.27-2.71-2.65-5.76-1.13-3.4,1.13-15.62,.37-27.15-2.28-18.33-4.15-20.7-5.66-17.65-11.33,1.7-3.77,3.05-8.3,3.05-10.57,0-6.43-17.3-4.91-24.43,2.27-3.39,3.39-6.11,4.15-6.11,1.88,0-3.78-8.82-8.31-19.68-10.58-8.15-1.51-8.82-4.91-2.38-12.84,4.08-4.91,7.47-6.43,9.84-3.78,2.72,2.27,7.13,1.52,12.22-1.89,4.75-2.64,8.82-4.91,9.16-5.29,.34-.38,12.56,4.91,26.81,11.34,14.26,6.04,36.32,18.51,48.53,27.2,12.22,9.06,29.53,20.77,38.69,26.44,16.63,10.95,22.74,24.18,8.48,19.27Zm12.9-270.87c-3.73,4.16-6.45-2.27-3.73-9.07q2.71-6.42,4.07,0c1.02,3.78,.68,7.94-.34,9.07Zm0-633.54c-1.02,0-2.72-1.89-3.73-3.79-1.02-2.26-.34-3.77,1.35-3.77,2.04,0,3.74,1.51,3.74,3.77,0,1.9-.68,3.79-1.36,3.79Zm4.75,374c-4.41-7.55-4.41-12.46,0-9.44,2.04,1.13,3.39,5.28,3.39,8.69,0,5.67-.67,5.67-3.39,.75Zm29.53-437.48c-1.02,3.03-2.04,1.9-2.04-2.26-.34-4.16,.68-6.42,1.7-4.91,1.01,1.13,1.35,4.54,.34,7.17Zm-2.38-17.75c-2.04,1.51-3.39-1.88-3.39-7.55s1.35-9.07,3.39-7.56c2.04,1.14,3.39,4.53,3.39,7.56s-1.35,6.42-3.39,7.55Zm22.4-13.97c-4.41,4.53-5.77-3.03-3.4-15.12l3.06-12.47,1.02,12.47c.67,7.18,.34,13.6-.68,15.12Z"/>
  </g>
</svg>